<svg xmlns="http://www.w3.org/2000/svg" xmlns:xlink="http://www.w3.org/1999/xlink" viewBox="0 0 341.49 152.76"><defs><style>.cls-1{fill:url(#linear-gradient);}.cls-2,.cls-3{fill:#231f20;}.cls-3{font-size:29.6px;font-family:Helvetica;}.cls-4{letter-spacing:-0.02em;}.cls-5{fill:#2381c4;letter-spacing:0em;}</style><linearGradient id="linear-gradient" x1="52.23" y1="79.25" x2="143.58" y2="79.25" gradientUnits="userSpaceOnUse"><stop offset="0" stop-color="#fff"/><stop offset="0.25" stop-color="#2381c4"/><stop offset="1" stop-color="#0099cd"/></linearGradient></defs><title>logo_helvetica</title><g id="Layer_2" data-name="Layer 2"><g id="Layer_1-2" data-name="Layer 1"><text/><path class="cls-1" d="M142.78,12.93V120.55c0,7.92.19,16.93.8,23h-15.8L127,128.1h-.39c-5.4,9.93-17.19,17.48-33,17.48-23.39,0-41.38-18.22-41.38-45.26C52,70.7,72,52.48,95.61,52.48c14.79,0,24.78,6.44,29.18,13.62h.4V12.93ZM125.19,90.75a26.46,26.46,0,0,0-.8-6.81c-2.6-10.3-12.2-18.76-25.39-18.76-18.19,0-29,14.72-29,34.4,0,18,9.6,32.93,28.58,32.93,11.8,0,22.59-7.17,25.79-19.31a26,26,0,0,0,.8-7Z"/><path class="cls-2" d="M0,143.55c.38-6.07.76-15.08.76-23V12.93H17.27V68.86h.38C23.54,58.92,34.17,52.48,49,52.48c22.78,0,38.92,18.4,38.73,45.45,0,20.54-8.63,34.42-20.25,41.67-7.53,4.7-15.77,5.43-20.94,6-5.56.58-13.1,1.28-21.25-2.38a33.27,33.27,0,0,1-5.23-3L15.71,140c-.42,1.18-.85,2.36-1.28,3.54Zm17.27-35.69a29.47,29.47,0,0,0,.76,5.89A25.65,25.65,0,0,0,43.09,132.7c17.46,0,27.9-13.8,27.9-34.22,0-17.85-9.49-33.12-27.33-33.12A26.48,26.48,0,0,0,18.22,85.23a31,31,0,0,0-.95,6.62Z"/><text class="cls-3" transform="translate(148.52 138.52) scale(1.09 1)">BA<tspan class="cls-4" x="39.48" y="0">RT</tspan><tspan x="77.9" y="0"> </tspan><tspan class="cls-5" x="86.12" y="0">Delays</tspan></text><text/></g></g></svg>