<?xml version="1.0" encoding="UTF-8"?>
 <!DOCTYPE svg PUBLIC "-//W3C//DTD SVG 1.1//EN"
   "http://www.w3.org/Graphics/SVG/1.1/DTD/svg11.dtd">
 <svg xmlns="http://www.w3.org/2000/svg" version="1.1"
   xmlns:xlink="http://www.w3.org/1999/xlink" width="313.622" height="471.664">
  <path fill="brown" stroke="black" d="M 244.61,368.146 C 267.622,364.437 290.529,340.437 290.529,311.187 L 290.529,97.33 C 290.529,67.138 265.13,39.424 230.622,39.424 L 83,39.424 C 48.493,39.424 23.093,67.138 23.093,97.33 L 23.093,311.187 C 23.093,340.437 46,364.437 69.012,368.146 L 0,471.664 39.816,471.664 89.179,399.297 224.443,399.297 273.806,471.664 313.621,471.664 244.61,368.146 z M 117.934,61.438 C 117.934,56.188 122.5,51.778 127.75,51.778 L 185.872,51.778 C 191.122,51.778 195.688,56.188 195.688,61.438 L 195.688,78.438 C 195.688,83.688 191.372,88.201 185.872,88.201 L 127.75,88.201 C 122.25,88.201 117.934,83.688 117.934,78.438 L 117.934,61.438 z M 55.152,129.688 C 55.152,113.688 65.5,99.726 85,99.726 L 228.622,99.726 C 248.122,99.726 258.471,113.688 258.471,129.688 L 258.471,168.188 C 258.622,186.688 245.122,198.014 228.622,198.014 L 85,198.014 C 68.5,198.014 55,186.688 55.152,168.188 L 55.152,129.688 z M 81.75,336.951 C 67.245,336.951 55.487,325.191 55.487,310.687 55.487,296.183 67.245,284.424 81.75,284.424 96.255,284.424 108.013,296.183 108.013,310.687 108.013,325.191 96.255,336.951 81.75,336.951 z M 205,310.688 C 205,296.184 216.758,284.425 231.263,284.425 245.768,284.425 257.526,296.184 257.526,310.688 257.526,325.192 245.768,336.952 231.263,336.952 216.758,336.952 205,325.191 205,310.688 z M 195.446,16.591999 C 195.446,25.755507 188.01751,33.183998 178.854,33.183998 169.6905,33.183998 162.262,25.755507 162.262,16.591999 162.262,7.428491 169.6905,0 178.854,0 188.01751,0 195.446,7.428491 195.446,16.591999 z M 151.36,16.591999 C 151.36,25.755507 143.93151,33.183998 134.76801,33.183998 125.6045,33.183998 118.17601,25.755507 118.17601,16.591999 118.17601,7.428491 125.6045,0 134.76801,0 143.93151,0 151.36,7.428491 151.36,16.591999 z" />
 </svg>
